<?xml version="1.0" encoding="UTF-8"?>
<svg xmlns="http://www.w3.org/2000/svg" xmlns:xlink="http://www.w3.org/1999/xlink" width="854" height="480" viewBox="0 0 854 480">
<defs>
<g>
<g id="glyph-0-0">
<path d="M 2.640625 -2.359375 C 2.746094 -2.230469 2.828125 -2.082031 2.886719 -1.917969 C 2.945312 -1.75 2.976562 -1.558594 2.976562 -1.34375 C 2.976562 -1.132812 2.941406 -0.9375 2.871094 -0.765625 C 2.800781 -0.589844 2.707031 -0.441406 2.589844 -0.316406 C 2.46875 -0.191406 2.335938 -0.0976562 2.1875 -0.03125 C 2.039062 0.0351562 1.882812 0.0703125 1.714844 0.0703125 C 1.554688 0.0703125 1.421875 0.0507812 1.320312 0.015625 C 1.214844 -0.0195312 1.132812 -0.0625 1.066406 -0.109375 L 1.042969 -0.109375 L 1.042969 0.695312 C 1.042969 0.757812 1.058594 0.8125 1.082031 0.855469 C 1.109375 0.898438 1.148438 0.933594 1.199219 0.953125 C 1.242188 0.96875 1.304688 0.984375 1.386719 1 C 1.464844 1.015625 1.53125 1.023438 1.585938 1.027344 L 1.585938 1.203125 L 0.0898438 1.203125 L 0.0898438 1.027344 C 0.144531 1.023438 0.199219 1.015625 0.253906 1.011719 C 0.304688 1.007812 0.351562 0.996094 0.394531 0.984375 C 0.449219 0.964844 0.484375 0.933594 0.507812 0.890625 C 0.527344 0.84375 0.539062 0.792969 0.539062 0.730469 L 0.539062 -2.117188 C 0.539062 -2.171875 0.527344 -2.222656 0.5 -2.273438 C 0.472656 -2.324219 0.4375 -2.363281 0.394531 -2.394531 C 0.359375 -2.417969 0.316406 -2.433594 0.257812 -2.445312 C 0.199219 -2.457031 0.144531 -2.464844 0.0898438 -2.46875 L 0.0898438 -2.648438 L 1 -2.707031 L 1.039062 -2.675781 L 1.039062 -2.375 L 1.0625 -2.367188 C 1.15625 -2.476562 1.269531 -2.566406 1.410156 -2.640625 C 1.550781 -2.710938 1.6875 -2.75 1.824219 -2.75 C 1.992188 -2.75 2.144531 -2.710938 2.28125 -2.640625 C 2.421875 -2.570312 2.539062 -2.476562 2.640625 -2.359375 M 2.199219 -0.433594 C 2.269531 -0.546875 2.324219 -0.675781 2.359375 -0.824219 C 2.390625 -0.972656 2.410156 -1.136719 2.410156 -1.320312 C 2.410156 -1.453125 2.394531 -1.589844 2.367188 -1.730469 C 2.335938 -1.871094 2.292969 -1.992188 2.230469 -2.09375 C 2.167969 -2.199219 2.089844 -2.285156 1.988281 -2.347656 C 1.890625 -2.414062 1.769531 -2.445312 1.628906 -2.445312 C 1.496094 -2.445312 1.382812 -2.417969 1.289062 -2.359375 C 1.195312 -2.300781 1.113281 -2.230469 1.042969 -2.148438 L 1.042969 -0.566406 C 1.0625 -0.519531 1.085938 -0.46875 1.125 -0.414062 C 1.160156 -0.363281 1.203125 -0.316406 1.246094 -0.28125 C 1.304688 -0.234375 1.363281 -0.199219 1.429688 -0.167969 C 1.496094 -0.140625 1.574219 -0.128906 1.667969 -0.128906 C 1.769531 -0.128906 1.867188 -0.152344 1.960938 -0.207031 C 2.054688 -0.261719 2.132812 -0.335938 2.199219 -0.433594 Z "/>
</g>
</g>
</defs>
<g fill="rgb(100%, 100%, 100%)" fill-opacity="1">
<use xlink:href="#glyph-0-0" x="30" y="25.094727"/>
</g>
</svg>
